<?xml version="1.0" standalone="no"?>
<!DOCTYPE svg PUBLIC "-//W3C//DTD SVG 20010904//EN"
 "http://www.w3.org/TR/2001/REC-SVG-20010904/DTD/svg10.dtd">
<svg version="1.0" xmlns="http://www.w3.org/2000/svg"
 width="616.000000pt" height="689.000000pt" viewBox="0 0 616.000000 689.000000"
 preserveAspectRatio="xMidYMid meet">

<g transform="translate(0.000000,689.000000) scale(0.100000,-0.100000)"
fill="#000000" stroke="none">
<path d="M2224 6847 c-74 -19 -140 -62 -179 -115 -60 -83 -242 -503 -319 -738
-67 -204 -155 -598 -192 -857 l-6 -48 -42 36 c-166 142 -414 269 -616 316 -82
19 -281 16 -360 -5 -186 -50 -326 -167 -410 -341 -57 -118 -74 -210 -67 -364
6 -150 28 -238 97 -399 202 -469 687 -920 1341 -1248 148 -74 149 -74 149
-108 0 -38 -3 -39 -184 -107 -202 -75 -306 -208 -306 -392 0 -40 7 -98 16
-127 20 -68 312 -751 558 -1307 64 -144 116 -270 116 -279 0 -9 -59 -73 -131
-143 l-131 -126 32 -75 c64 -149 202 -380 239 -400 15 -7 290 -10 958 -8 l938
3 93 37 c51 21 143 64 205 97 62 33 138 69 170 80 70 24 129 66 168 119 l29
40 78 -20 c115 -30 215 -22 307 23 93 45 166 119 195 196 12 32 46 166 75 298
76 342 118 525 165 725 22 96 93 405 156 685 107 471 116 516 112 590 -5 102
-45 191 -119 270 -56 60 -113 91 -227 125 -41 12 -72 23 -70 25 1 2 57 39 123
82 218 144 456 360 605 548 202 256 310 492 341 745 36 301 -113 598 -356 711
-107 49 -169 62 -294 61 -196 -2 -371 -64 -592 -210 -58 -38 -134 -96 -170
-130 l-65 -60 -28 151 c-82 445 -118 604 -175 777 -98 296 -279 705 -344 777
-22 24 -62 52 -99 68 -53 24 -79 29 -178 33 -160 6 -269 -18 -443 -96 -163
-74 -201 -85 -302 -85 -95 0 -159 17 -292 79 -153 71 -246 95 -393 99 -84 3
-142 0 -176 -8z m322 -191 c29 -9 103 -38 166 -65 143 -61 203 -80 300 -91
132 -15 225 1 425 76 96 35 202 71 236 79 69 15 225 31 216 21 -3 -3 -45 -17
-95 -31 -82 -24 -162 -63 -454 -218 -218 -116 -310 -115 -577 4 -76 34 -166
72 -200 85 l-61 23 -44 -23 c-36 -19 -50 -36 -90 -112 -26 -49 -48 -92 -48
-95 0 -3 64 9 143 27 78 19 153 36 167 39 36 7 -75 -50 -215 -111 -118 -52
-120 -53 -152 -108 -17 -30 -34 -64 -37 -74 -7 -20 -17 -21 239 22 43 7 -65
-48 -185 -95 l-95 -37 -42 -79 -42 -80 52 7 c29 4 97 10 152 14 117 7 117 7
-98 -69 l-149 -52 -39 -72 -39 -72 103 6 c56 3 141 8 190 11 48 2 87 2 87 0 0
-9 -163 -56 -292 -85 l-122 -27 -38 -64 -37 -65 207 -5 c124 -3 196 -8 179
-13 -31 -8 -492 -87 -512 -87 -10 0 -8 25 7 108 65 361 140 594 338 1047 115
262 121 273 139 279 34 11 267 -3 317 -18z m-1609 -1434 c182 -61 379 -178
677 -400 250 -186 373 -264 550 -353 309 -154 591 -221 926 -222 326 -1 613
62 920 202 202 92 345 179 746 453 299 204 500 274 734 258 l75 -5 -75 -7
c-82 -7 -208 -47 -310 -98 -91 -45 -193 -113 -430 -285 -393 -285 -618 -416
-880 -513 -312 -116 -663 -170 -928 -143 -388 40 -680 148 -1132 422 -461 279
-585 344 -761 403 -282 94 -518 61 -661 -92 -76 -81 -116 -181 -120 -304 -2
-37 -6 -64 -10 -60 -3 4 -14 42 -22 84 -20 97 -21 246 -1 321 46 178 187 325
352 367 21 5 88 8 148 6 91 -3 126 -9 202 -34z m1092 -120 c69 -50 87 -128 49
-202 -29 -57 -94 -94 -148 -85 -136 24 -186 180 -87 273 47 44 135 51 186 14z
m555 5 c124 -70 96 -253 -44 -287 -42 -10 -54 -9 -93 8 -52 23 -87 68 -94 122
-7 52 1 82 34 121 51 61 129 75 197 36z m584 -4 c118 -88 79 -262 -65 -289
-44 -8 -121 30 -150 75 -49 74 -22 180 57 223 44 24 120 20 158 -9z m562 4
c57 -30 82 -76 77 -143 -6 -90 -68 -147 -159 -148 -81 0 -151 73 -150 156 1
60 31 109 82 136 56 28 96 28 150 -1z m579 -4 c51 -38 73 -83 69 -139 -8 -92
-68 -146 -161 -146 -165 2 -207 253 -51 302 43 14 113 5 143 -17z m-2163 -917
c76 -24 132 -47 124 -50 -8 -3 -44 -12 -80 -21 -36 -9 -92 -31 -125 -48 -53
-29 -57 -32 -33 -35 15 -2 91 4 169 12 78 9 165 15 193 15 l51 -2 -61 -8 c-78
-10 -139 -26 -184 -49 -40 -21 -140 -100 -140 -111 0 -4 42 -9 93 -11 50 -2
100 -8 111 -12 16 -8 17 -7 7 12 -6 11 -11 32 -11 46 0 24 3 26 50 26 47 0 50
-2 50 -25 0 -69 62 -121 133 -112 56 8 92 45 92 97 0 22 4 40 10 40 27 -1 94
-40 100 -59 16 -51 -69 -133 -171 -167 l-59 -19 73 -3 c89 -4 140 16 212 84
28 26 52 45 55 42 2 -2 11 -29 18 -58 l14 -55 33 64 c17 35 37 91 44 125 11
54 16 61 42 68 32 9 94 1 94 -12 0 -4 -17 -22 -37 -38 l-38 -30 76 -7 c42 -4
81 -10 88 -14 9 -6 10 -68 5 -248 l-7 -241 -41 -6 c-23 -3 -64 -8 -92 -12
l-51 -6 -6 38 c-4 22 -7 66 -7 99 -1 58 -1 59 -15 33 -8 -15 -27 -60 -41 -100
-15 -40 -30 -76 -33 -79 -3 -4 -104 -21 -224 -38 -264 -39 -320 -57 -398 -128
-16 -14 -100 -51 -202 -88 -97 -35 -185 -68 -196 -74 -18 -10 -21 -5 -41 87
-12 53 -23 107 -26 120 -5 23 -5 23 -35 -8 -46 -45 -87 -38 -130 21 -52 73
-225 619 -236 743 -7 86 4 111 53 132 45 19 101 5 152 -39 40 -35 71 -68 72
-78 0 -3 -31 3 -68 14 -43 13 -79 17 -96 13 -28 -7 -28 -7 -24 -79 3 -51 15
-98 39 -159 l34 -87 0 103 c0 58 4 108 8 112 12 12 54 -44 76 -101 10 -28 25
-79 32 -114 11 -57 10 -65 -4 -76 -10 -7 -17 -15 -17 -18 0 -7 129 -210 141
-222 7 -7 8 22 4 90 -8 115 3 223 44 440 16 83 32 173 36 202 7 53 19 69 70
96 46 25 80 21 231 -27z m1710 -242 c25 -5 26 -8 21 -45 -10 -79 -88 -130
-208 -137 -93 -5 -157 18 -189 70 -37 61 -23 94 44 105 36 6 36 5 36 -29 0
-25 8 -43 26 -61 72 -72 194 -26 194 74 0 43 -7 41 76 23z m496 -635 c420
-105 785 -200 811 -211 87 -37 157 -138 157 -226 0 -48 -64 -343 -235 -1082
-40 -173 -110 -477 -155 -675 -45 -198 -90 -389 -100 -425 -44 -150 -184 -217
-351 -167 l-56 17 10 46 c12 53 -3 145 -33 203 -37 73 -122 131 -189 131 l-30
0 16 38 c11 23 17 66 17 117 1 71 -2 86 -29 134 -36 65 -83 105 -153 131 -69
26 -108 25 -213 -4 l-87 -23 20 44 c15 35 19 61 16 124 -3 67 -1 78 12 73 30
-11 432 -115 435 -112 2 2 -12 27 -31 56 -66 98 -91 205 -76 322 l8 65 12 -41
c27 -94 114 -180 206 -205 55 -15 152 -7 201 16 21 11 57 37 78 58 57 57 80
116 85 217 7 136 -26 215 -216 514 -123 196 -190 304 -195 319 -3 11 -214
-116 -478 -289 -164 -107 -230 -169 -271 -252 -19 -39 -23 -63 -23 -137 0
-108 18 -149 95 -218 113 -102 269 -103 389 -2 l34 29 -8 -25 c-13 -43 -67
-143 -96 -181 -26 -33 -115 -100 -152 -113 -9 -4 -27 14 -51 50 -44 67 -107
110 -184 126 -73 15 -110 4 -360 -100 -197 -83 -207 -86 -199 -73 10 15 309
1373 373 1692 19 94 39 141 74 175 31 29 90 54 132 55 15 0 370 -86 790 -191z
m-1182 -102 c0 -22 -199 -947 -225 -1046 -31 -116 -75 -200 -140 -267 l-51
-51 53 -29 c36 -19 52 -33 49 -44 -3 -8 -10 -42 -16 -75 -26 -136 -52 -235
-63 -235 -9 0 -201 -75 -318 -124 l-35 -15 -2 42 c-2 23 -11 131 -22 240 -53
533 -110 1202 -110 1287 0 53 6 78 28 121 39 78 91 107 224 126 57 7 207 29
333 47 264 39 295 41 295 23z m-1048 -291 c-2 -24 1 -106 7 -183 6 -76 20
-250 31 -388 11 -137 22 -279 25 -315 l5 -65 -41 -30 c-23 -16 -51 -42 -62
-57 -26 -34 -35 -135 -17 -178 17 -42 83 -98 124 -105 34 -7 35 -8 41 -68 3
-34 12 -125 20 -202 l14 -140 -152 -147 c-84 -81 -155 -148 -158 -148 -4 0 -9
8 -12 18 -3 9 -40 94 -82 187 -42 94 -185 422 -318 730 -206 481 -241 569
-245 620 -6 89 12 142 67 196 42 42 68 55 291 142 247 97 451 175 460 176 3 1
4 -19 2 -43z m1459 -1355 c33 -32 39 -45 39 -80 0 -56 -32 -115 -78 -146 -21
-14 -137 -71 -258 -128 -281 -132 -463 -231 -589 -320 -369 -260 -758 -527
-769 -527 -3 0 -21 35 -41 77 l-36 77 313 313 c276 276 319 315 372 339 34 14
151 69 261 122 110 53 306 144 435 204 275 126 291 129 351 69z m458 -397 c31
-33 33 -40 29 -86 -10 -97 -34 -113 -377 -243 -223 -85 -423 -178 -510 -238
-25 -17 -166 -123 -313 -234 l-267 -203 -273 0 -273 1 40 35 c22 20 141 113
265 207 124 94 297 227 384 296 88 68 173 132 190 142 17 10 85 33 151 53 66
19 165 51 220 71 175 64 518 193 580 220 75 32 109 27 154 -21z m225 -435 c51
-60 25 -159 -51 -197 -21 -11 -159 -70 -308 -132 -148 -62 -309 -130 -358
-152 -82 -37 -96 -40 -225 -49 -277 -19 -367 -22 -357 -12 33 34 284 239 316
258 20 13 73 33 117 44 90 23 451 146 647 220 158 60 184 62 219 20z"/>
<path d="M1914 5034 c-35 -18 -44 -31 -44 -65 0 -65 77 -93 128 -46 59 54 -12
148 -84 111z"/>
<path d="M2451 5014 c-24 -30 -26 -46 -10 -77 16 -29 28 -37 64 -37 47 0 75
25 75 66 0 71 -86 103 -129 48z"/>
<path d="M3030 5020 c-26 -26 -26 -81 -2 -103 46 -41 132 -6 132 53 0 59 -87
93 -130 50z"/>
<path d="M3620 5037 c-53 -27 -51 -109 4 -136 25 -12 33 -11 62 3 39 18 52 53
34 95 -6 16 -23 33 -36 40 -31 14 -33 14 -64 -2z"/>
<path d="M4164 5014 c-20 -19 -24 -31 -19 -52 10 -42 40 -66 81 -66 68 0 97
72 49 119 -32 33 -78 33 -111 -1z"/>
<path d="M3540 3336 c-16 -35 -32 -75 -36 -89 -3 -15 -10 -25 -14 -22 -13 8
-22 -46 -9 -61 19 -23 48 -17 55 11 10 39 34 31 34 -10 0 -33 2 -35 33 -35
l32 0 1 125 c1 69 1 125 0 125 0 0 -16 4 -34 10 l-34 9 -28 -63z m45 -82 c-3
-20 -12 -34 -20 -34 -19 0 -19 5 2 60 19 49 30 34 18 -26z"/>
<path d="M3511 3116 c-6 -8 -24 -17 -39 -21 -81 -20 -84 -115 -3 -103 34 5 32
-17 -2 -28 -18 -6 -15 -9 23 -19 52 -13 58 -11 41 9 -11 13 -8 14 23 9 41 -6
76 16 76 48 0 19 -75 112 -95 117 -6 2 -17 -4 -24 -12z"/>
<path d="M4659 1081 c17 -31 14 -43 -8 -31 -29 15 -68 12 -75 -6 -10 -27 -7
-40 24 -85 16 -24 30 -47 30 -51 0 -4 -16 -4 -35 -1 -27 4 -36 2 -41 -11 -4
-10 0 -22 10 -29 16 -12 16 -18 -6 -99 l-23 -87 24 -25 c18 -19 35 -26 63 -26
48 0 61 19 82 125 9 43 22 82 28 86 8 5 7 14 -5 33 -15 22 -21 24 -43 15 -15
-5 -29 -7 -31 -5 -10 10 9 25 45 37 48 15 72 37 72 64 0 27 -18 45 -47 45 -29
0 -30 16 -1 31 22 12 22 12 3 19 -11 4 -33 10 -48 14 -26 6 -27 5 -18 -13z m4
-266 c-12 -74 -34 -135 -48 -135 -20 0 -19 35 1 108 12 43 21 58 34 58 15 0
18 -6 13 -31z"/>
<path d="M2439 2983 c-13 -3 -17 -26 -22 -135 -3 -72 -10 -135 -16 -141 -23
-23 -11 -37 29 -37 43 0 63 21 41 43 -6 6 -11 33 -11 59 0 60 24 66 39 11 14
-49 14 -60 -1 -65 -21 -7 0 -38 26 -38 54 0 72 25 42 59 -7 9 -19 39 -25 66
-42 174 -52 192 -102 178z m33 -88 c3 -14 1 -25 -3 -25 -5 0 -9 11 -9 25 0 14
2 25 4 25 2 0 6 -11 8 -25z"/>
<path d="M2452 2598 c-23 -35 -42 -69 -42 -75 0 -18 39 -45 65 -45 25 0 25 -1
10 -24 -15 -24 -15 -24 26 -24 39 0 41 1 27 18 -28 33 -33 46 -13 38 26 -9 65
19 65 49 0 14 -18 44 -48 76 l-48 52 -42 -65z"/>
<path d="M1465 2546 c-18 -13 -18 -17 12 -142 17 -71 29 -141 26 -156 -6 -33
11 -37 57 -13 21 11 27 20 23 35 -3 12 -11 19 -18 16 -17 -6 -41 82 -26 97 7
7 14 2 20 -16 6 -15 19 -45 30 -68 l21 -42 -25 -62 c-27 -68 -31 -105 -13
-123 17 -17 54 -15 73 4 21 21 30 12 15 -15 -13 -25 -12 -25 34 -6 32 14 48
27 29 24 -41 -7 -43 13 -3 28 30 11 48 49 36 78 -7 19 -63 54 -98 62 -33 7
-35 14 -8 38 23 21 26 45 7 45 -8 0 -46 52 -87 115 -40 63 -76 115 -79 115 -4
0 -16 -6 -26 -14z m53 -127 c-3 -8 -7 -3 -11 10 -4 17 -3 21 5 13 5 -5 8 -16
6 -23z"/>
</g>
</svg>
